<svg id="Layer_1" xmlns="http://www.w3.org/2000/svg" viewBox="0 0 1020 240"><style>.st1{fill:#fff}</style><path fill="#ff860d" d="M0 0h1020v240H0z"/><path class="st1" d="M210.2 106.7c-.3-1.8-.6-2.9-.6-2.9s-.7.8-1.9 2.4c-.4-4.3-1.2-8.6-2.3-12.8-1.5-5.2-3.5-10.3-5.9-15.2-1.5-3.2-3.3-6.3-5.4-9.3-.7-1.1-1.5-2.2-2.3-3.2-3.6-5.9-7.7-9.5-12.5-16.2-3.1-5.2-5.2-11-6.3-16.9-1.3 3.6-2.3 7.3-3 11.1-4.9-4.9-9.2-8.5-11.7-10.9-12.7-11.9-11.2-18-11.2-18s-23.7 26.5-13.4 54.1c3.5 9.4 9.7 17.5 17.7 23.5 9.9 8.2 20.6 14.7 26.3 31.1-4.5-8.7-11.4-15.9-19.8-20.9 2.5 6 3.8 12.4 3.8 18.9 0 24.8-20.2 44.9-45 44.9-3.4 0-6.7-.4-10-1.1-3.9-.7-7.6-2-11.1-3.8-5.2-3.2-9.8-7.4-13.3-12.3l-.1-.1.8.3c1.9.6 3.8 1.1 5.7 1.5 7.6 1.6 15.6.7 22.6-2.7 7.1-3.9 11.4-6.9 14.9-5.7h.1c3.4 1.1 6.1-2.2 3.7-5.7-4.2-5.5-11.1-8.2-18-7-7.1 1-13.6 6.1-22.9 1.2-.6-.3-1.2-.7-1.7-1-.6-.4 2 .5 1.4.1-2-1-4-2.2-5.9-3.5-.1-.1 1.4.4 1.3.3-2.4-1.6-4.5-3.7-6.1-6.2-1.7-3-1.8-6.7-.4-9.8.9-1.5 2.2-2.8 3.8-3.6 1.2.6 1.9 1 1.9 1s-.5-1-.8-1.5c.1 0 .2 0 .3-.1 1.1.5 3.4 1.6 4.6 2.4.8.5 1.6 1.1 2.1 1.9 0 0 .4-.2.1-1.1-.4-1.1-1.2-2-2.2-2.7h.1c.9.5 1.8 1 2.7 1.7.8-1.8 1.1-3.7 1.1-5.7.1-1.1-.1-2.1-.4-3.2-.3-.6.2-.9.8-.2-.1-.5-.3-1-.5-1.5v-.1s.3-.4.5-.6c.4-.4.9-.8 1.4-1.1 2.9-1.8 6-3.4 9.2-4.7 2.6-1.1 4.8-2 5.2-2.3.7-.4 1.3-.9 1.8-1.4 2.2-1.8 3.6-4.4 4.2-7.2.1-.4.1-.7.1-1.1v-.7c-.4-1.4-2.8-2.5-15.6-3.7-4.5-.7-8.1-4.1-9.1-8.6v.1c-.2.5-.3.9-.5 1.4.2-.5.3-.9.5-1.4v.1c2.4-6.4 6.8-11.8 12.5-15.6.3-.3-1.3.1-1-.2 1.1-.5 2.2-1 3.3-1.4.6-.2-2.5-1.4-5.1-1.1-1.6.1-3.3.5-4.8 1.1.6-.5 2.5-1.3 2.1-1.3-3.4.7-6.7 1.9-9.7 3.7 0-.3.1-.6.2-.9-2.4 1-4.5 2.6-6.1 4.7 0-.4.1-.7.1-1.1-1.1.8-2.1 1.8-3 2.8h-.1c-7.1-2.7-14.8-3.4-22.2-1.9l-.1-.1h.1c-1.5-1.3-2.9-2.7-3.9-4.4h-.1l-.1-.1c-.5-.7-1-1.5-1.5-2.4-.4-.6-.7-1.4-1.1-2.1 0-.1-.1-.1-.1-.1-.2 0-.3.7-.4.5-1.3-3.4-1.9-7-1.8-10.6l-.1.1c-2.1 1.4-3.7 3.5-4.5 5.9-.4.9-.6 1.3-.9 1.8v-.2c.1-.4.2-1.3.2-1.3s-.1.1-.1.2c-.6.7-1.2 1.5-1.6 2.3-.4.8-.7 1.6-.9 2.4v-.4c0-.3.1-.8 0-.7l-.1.3c-2.7 6.1-4.4 12.5-5 19.1-.2 1.1-.2 2.3-.2 3.4v.1c-2 2.1-3.7 4.5-5.2 6.9-4.9 8.3-8.6 17.3-10.9 26.7 1.6-3.6 3.6-7 5.8-10.2-4.4 11-6.6 22.8-6.6 34.7.7-3.5 1.7-6.9 2.8-10.3-.7 14 2 28 7.9 40.8 7.9 17.7 21 32.5 37.5 42.6 6.7 4.6 14.1 8.1 21.9 10.5 1 .4 2.1.7 3.1 1.1-.3-.1-.6-.3-1-.4 9.2 2.8 18.8 4.2 28.4 4.2 34 0 45.3-13 46.3-14.2 1.7-1.5 3-3.4 4-5.4.7-.3 1.3-.6 2-.9l.4-.2.8-.4c5.1-2.4 9.9-5.4 14.4-9 6.6-4.7 11.4-11.7 13.4-19.6 1.2-2.9 1.3-6.1.2-9 .3-.6.7-1.1 1.1-1.8 7.3-11.7 11.5-25.2 12-39v-1.1c-.3-3-.5-5.9-1.1-8.8z"/><path fill="none" d="M244 52.5h758V215H244z"/><text transform="translate(244.035 163.06)" class="st1" font-size="160.726" font-family="ZillaSlab-Bold">Accounts</text></svg>