<svg xmlns="http://www.w3.org/2000/svg" viewBox="0 0 2326 240"><g data-name="Layer 4"><path fill="#424c55" d="M0 0h2326v240H0z"/><path d="M434.93 192.89h-56.85v-25h11.42l-5.27-14.49h-48.5l-5.93 14.49h13.39v25H287v-25h12.95l40.82-92.62H321v-25h49l51.36 117.64h13.61zm-58.6-60.58L361.4 92.15h-1.32l-16 40.17zm177.56 8.78q0 21.95-11.52 38t-33.91 16q-20.85 0-30.29-14.71v37.31h17.56v21.95h-59v-21.95h13.17v-102.5h-14.31V93.9h42.58v18.88A39.42 39.42 0 0 1 490 98.07q7.9-6.14 21.51-6.15 18.87 0 30.62 12.95t11.76 36.22zm-29.41 2.85q0-14.49-6.47-22.06a20.83 20.83 0 0 0-16.57-7.57q-11 0-16.79 8.12t-6.26 20.63l-.22 3.51q0 12.07 6.37 19.1t16.9 7a21.53 21.53 0 0 0 16.57-7q6.47-7.02 6.47-21.73zm154.74-2.85q0 21.95-11.52 38t-33.91 16q-20.85 0-30.29-14.71v37.31h17.56v21.95H562v-21.95h13.17v-102.5h-14.25V93.9h42.58v18.88a39.42 39.42 0 0 1 11.85-14.71q7.9-6.14 21.51-6.15 18.87 0 30.62 12.95t11.74 36.22zm-29.41 2.85q0-14.49-6.47-22.06a20.83 20.83 0 0 0-16.57-7.57q-11 0-16.79 8.12t-6.26 20.63l-.22 3.51q0 12.07 6.37 19.1t16.9 7a21.53 21.53 0 0 0 16.57-7q6.46-7.02 6.47-21.73zm92.84 48.95H688V171.6h13.17V63.4H686.9V41.88h42.58V171.6h13.17zm65.62 0h-54.65V171.6h13.17v-56.19h-14.27V93.9h42.58v77.7h13.17zM765.69 76.34V46.93H794v29.41zM912.08 156q-1.54 13.61-11.74 26.34t-34.13 12.73q-21.51 0-35.45-12.51T816.83 145q0-26.34 15.14-39.73t36.65-13.39A80.37 80.37 0 0 1 886.07 94a72 72 0 0 1 18.33 6.91l4.39 30.09-22.61 2.41-3.29-16.24a48.29 48.29 0 0 0-14.89-2.86 20.13 20.13 0 0 0-15.36 6.91q-6.37 6.91-6.37 22.5 0 29 22.61 29 16.68 0 19.53-21.07zm18.44-55.07a135.43 135.43 0 0 1 21.62-7.13 100.06 100.06 0 0 1 20.74-1.87q16 0 27.66 8.34t11.63 25.24v43q0 7.69 6.8 7.68a14.54 14.54 0 0 0 4.17-.66l.22 14.93a37 37 0 0 1-17.78 4.61q-19.54 0-21.73-19.53v-.22a46.11 46.11 0 0 1-12 13.61q-7.79 6.14-19.86 6.15a37.54 37.54 0 0 1-20.63-6.37q-9.88-6.36-9.88-21.95 0-18.22 14.6-24.14a82.92 82.92 0 0 1 31.49-5.93 129.66 129.66 0 0 1 16.24.88v-3.29a53.74 53.74 0 0 0-2.08-14.92q-2.09-7.24-14.16-7.24a53.9 53.9 0 0 0-8 .55 23.94 23.94 0 0 0-7.13 2.3l-3.73 14-22.61-2.41zm53.33 51.58v-1.32l-7.13-.88a59.39 59.39 0 0 0-7.13-.44 30.05 30.05 0 0 0-13.17 2.74q-5.71 2.75-5.71 10.86a12.59 12.59 0 0 0 2.63 8.12q2.63 3.29 9 3.29a21.41 21.41 0 0 0 13.94-5.38q6.47-5.36 7.57-16.99zm131.91 9.65q-2.2 17.12-11.85 25t-25 7.9q-16.46 0-26.67-8.23T1042 163.26V114.1h-14V93.9h14V63.83h28.31V93.9h35.56v20.2h-35.56v44.33q0 13 11.85 13 2.63 0 7.13-2.3t5.82-13.28zm59.92 30.73H1121V171.6h13.17v-56.19h-14.27V93.9h42.58v77.7h13.17zM1133.1 76.34V46.93h28.31v29.41zm156.9 67.17q0 23.49-15.36 37.53t-39.07 14q-22.83 0-37.2-13.28T1184 144.6q0-21.73 13.17-37.31t39.95-15.58q26.77 0 39.84 15.47a54.59 54.59 0 0 1 13.04 36.33zm-29.19-.88q0-15.14-7-22.17a23.3 23.3 0 0 0-17.12-7q-11 0-17.23 7.79t-6.26 21.84q0 12.73 5.82 21.51t17.45 8.78a21.66 21.66 0 0 0 17.67-8.23q6.7-8.25 6.7-22.52zm161.13 50.26h-54.65V171.6h13.17v-34.46q0-12.73-4.28-18.22t-12.62-5.49q-10.1 0-15.58 6.25t-5.72 16.32v35.6h13.17v21.29h-54.65V171.6H1314v-56.19h-14.27V93.9h42.58V109q9.88-17.12 31.83-17.12a37.57 37.57 0 0 1 24.36 8.34q10.32 8.34 10.32 25.9v45.48h13.17zm159.12-43.24q0 22.17-14.93 33.8t-41 11.63a114.53 114.53 0 0 1-28.86-3.73q-14.38-3.73-22.72-11.19l4.39-35.34 23.48 2.2-.22 17.34q7.46 4 12.73 4.72a63.62 63.62 0 0 0 9 .77q11.63 0 19.1-3t7.46-13.72q0-11.85-8.78-15.91A87 87 0 0 0 1520 131a145 145 0 0 1-20.74-5.16 39.5 39.5 0 0 1-17.45-11.19q-7-7.79-7-23.15 0-23.92 16.24-33.69a67.73 67.73 0 0 1 35.57-9.81 83.49 83.49 0 0 1 26.78 4.28q12.73 4.28 19.53 11.52l1.32 30.95-23.48 2.25-2-16.68a33.31 33.31 0 0 0-11.08-5 47.33 47.33 0 0 0-10.86-1.32q-8.78 0-14.6 3.07t-5.82 10.76q0 9 7.46 12.51A83.54 83.54 0 0 0 1531 106q8.78 1.76 20.52 4.94a46.61 46.61 0 0 1 20.63 11.85q8.91 8.65 8.91 26.86zm108.42 12.07q-1.1 13.17-12.95 23.27t-33.14 10.1q-22.17 0-36.54-12.51t-14.38-37.31q0-22.82 13.06-38.08t36.54-15.25q20.63 0 33.47 11.85t13.06 31.17a66.73 66.73 0 0 1-1.54 14.27h-65q2.41 23.49 23.27 23.48 11.41 0 15.47-5.49t4.94-9.88zm-30.07-29a21.35 21.35 0 0 0-3.18-14q-4.06-6.59-14.16-6.59-8.78 0-13.61 5.71t-6.15 14.92zm103.37-40.13a41.45 41.45 0 0 1 9.33 1.21 35 35 0 0 1 10.21 4.28l4.39 34.68-21.51 2.42-3.73-16.9q-4.39-2.63-7.68-2.63a11.42 11.42 0 0 0-8.45 3.73q-3.62 3.73-3.62 11v41.22h17.56v21.29h-59V171.6h13.17v-56.19h-14.27V93.9h40.38v18.88a34.59 34.59 0 0 1 7.79-14.38q5.33-5.81 15.43-5.81zm142.01 22.6h-10.1l-35.34 77.7h-20.41l-37.31-77.7h-10.54V93.9h50.48v21.29h-9.44l19.32 41.48h1.32l14.71-41.48h-7.9V93.9h45.21zm63.21 77.7h-54.65V171.6h13.17v-56.19h-14.27V93.9h42.58v77.7H1968zm-42.58-116.55V46.93h28.31v29.41zM2071.81 156q-1.54 13.61-11.74 26.34t-34.13 12.73q-21.51 0-35.45-12.51T1976.55 145q0-26.34 15.14-39.73t36.65-13.39A80.37 80.37 0 0 1 2045.8 94a72 72 0 0 1 18.33 6.91l4.39 30.07-22.61 2.41-3.29-16.24a48.29 48.29 0 0 0-14.93-2.85 20.13 20.13 0 0 0-15.36 6.91q-6.37 6.91-6.37 22.5 0 29 22.61 29 16.68 0 19.53-21.07zm105.13 5.72q-1.1 13.17-12.95 23.27t-33.14 10.1q-22.17 0-36.54-12.51t-14.38-37.31q0-22.82 13.06-38.08t36.54-15.25q20.63 0 33.47 11.85t13.06 31.17a66.73 66.73 0 0 1-1.54 14.27h-65q2.41 23.49 23.27 23.48 11.41 0 15.47-5.49t4.94-9.88zm-30.07-29a21.35 21.35 0 0 0-3.18-14q-4.06-6.59-14.16-6.59-8.78 0-13.61 5.71t-6.15 14.92zm129.93 29.88q0 16.46-13.06 24.47t-33.91 8a104 104 0 0 1-21.62-2.3 83.34 83.34 0 0 1-20.74-7.35l4-27.65 21.95 2.41v12.29a34.37 34.37 0 0 0 8.34 1.65q4.39.33 6.59.33a34.38 34.38 0 0 0 14-2.63q5.93-2.63 5.93-7.9 0-6.36-9-8.34t-20.85-4a51.43 51.43 0 0 1-20.85-8.12q-9-6.14-9-20.85 0-18.22 14.16-24.47a71.77 71.77 0 0 1 29.3-6.25 79.38 79.38 0 0 1 37.09 9l2.42 25.24-21.95 2.41-1.75-13.83a49 49 0 0 0-15.58-2.41 17.8 17.8 0 0 0-9.33 2.3 7.74 7.74 0 0 0-3.84 7.13q0 6.37 8.67 8.45t20.19 4.06a49.49 49.49 0 0 1 20.19 8q8.65 6.1 8.65 20.36zM238.59 108.68c-.27-1.79-.55-2.84-.55-2.84s-.7.81-1.86 2.34a66.73 66.73 0 0 0-2.3-12.6 85.78 85.78 0 0 0-5.81-14.94 62.25 62.25 0 0 0-5.3-9.09q-1.09-1.63-2.22-3.16c-3.53-5.77-7.58-9.29-12.27-16a48.36 48.36 0 0 1-6.14-16.63 67.18 67.18 0 0 0-2.95 10.89c-4.81-4.86-9-8.31-11.53-10.66-12.47-11.65-11-17.69-11-17.69s-23.3 26-13.2 53.09a52 52 0 0 0 17.35 23.13c9.76 8.05 20.28 14.39 25.82 30.59a51.9 51.9 0 0 0-19.48-20.55 46.92 46.92 0 0 1 3.72 18.59 44.14 44.14 0 0 1-54 43 40.65 40.65 0 0 1-10.94-3.72 44.5 44.5 0 0 1-13.1-12.11l-.06-.11.78.28a40.27 40.27 0 0 0 5.58 1.49 34.87 34.87 0 0 0 22.2-2.62c7-3.87 11.2-6.74 14.63-5.61h.04c3.35 1.07 6-2.18 3.59-5.58a18.21 18.21 0 0 0-17.59-6.86c-7 1-13.38 6-22.53 1.17a19.39 19.39 0 0 1-1.72-1c-.62-.35 2 .54 1.36.14a45.41 45.41 0 0 1-5.75-3.43c-.14-.11 1.38.43 1.24.32a22.19 22.19 0 0 1-6-6.07 10.79 10.79 0 0 1-.41-9.63 8.49 8.49 0 0 1 3.72-3.49c1.18.58 1.91 1 1.91 1l-.83-1.51c.11 0 .2 0 .3-.07 1 .45 3.33 1.61 4.54 2.32a6.29 6.29 0 0 1 2.08 1.86s.42-.2.11-1.07a5.58 5.58 0 0 0-2.14-2.63h.1a18.21 18.21 0 0 1 2.64 1.64 12.88 12.88 0 0 0 1.05-5.58 7.3 7.3 0 0 0-.43-3.1c-.33-.62.19-.87.76-.22a6 6 0 0 0-.49-1.47s.33-.43.48-.58a8.86 8.86 0 0 1 1.34-1.09 61.79 61.79 0 0 1 9.08-4.63c2.56-1.12 4.69-2 5.12-2.22a14.25 14.25 0 0 0 1.82-1.39 12.19 12.19 0 0 0 4.09-7.06 9.91 9.91 0 0 0 .11-1.1v-.65c-.37-1.39-2.78-2.44-15.34-3.62a11 11 0 0 1-9-8.43v.06c-.18.46-.34.92-.5 1.39.16-.46.32-.93.5-1.39v-.1a31.83 31.83 0 0 1 12.3-15.28c.32-.26-1.29.07-1-.2a31.94 31.94 0 0 1 3.28-1.39c.56-.24-2.42-1.38-5-1.1a13.63 13.63 0 0 0-4.68 1.1c.62-.53 2.48-1.24 2-1.24a30.14 30.14 0 0 0-9.55 3.61 2 2 0 0 1 .19-.87 14.87 14.87 0 0 0-6 4.61 7.9 7.9 0 0 0 .06-1.08 17.82 17.82 0 0 0-2.93 2.75h-.06a38.94 38.94 0 0 0-21.79-1.86L86 58.7h.07a18.23 18.23 0 0 1-3.87-4.34h-.1l-.1-.11q-.72-1.06-1.47-2.4c-.36-.62-.72-1.34-1.09-2.09 0 0-.06-.07-.08-.07s-.25.69-.38.51a26.69 26.69 0 0 1-1.77-10.5h-.1a11.67 11.67 0 0 0-4.42 5.79c-.38.85-.62 1.31-.87 1.78v-.17c.06-.43.24-1.31.2-1.24l-.12.14a10.74 10.74 0 0 0-1.56 2.3 14.59 14.59 0 0 0-.93 2.37v-.4c0-.29.06-.79 0-.69l-.14.27a58.86 58.86 0 0 0-5 18.8 18.72 18.72 0 0 0-.14 3.35v.1a41.06 41.06 0 0 0-5.06 6.82 96.69 96.69 0 0 0-10.7 26.21 64.13 64.13 0 0 1 5.73-10 92.93 92.93 0 0 0-6.47 34.08 88.18 88.18 0 0 1 2.79-10.09 85.54 85.54 0 0 0 7.73 40A93.16 93.16 0 0 0 95 200.94a80.64 80.64 0 0 0 21.49 10.3c1 .37 2 .72 3.06 1.07-.33-.13-.62-.27-.95-.42a97.27 97.27 0 0 0 27.88 4.1c33.42 0 44.45-12.73 45.47-14a16.91 16.91 0 0 0 3.95-5.3q1-.4 2-.85l.42-.19.75-.35a70.08 70.08 0 0 0 14.11-8.83 34.08 34.08 0 0 0 13.15-19.21 12 12 0 0 0 .18-8.85q.51-.81 1.06-1.73a78.72 78.72 0 0 0 11.81-38.29v-1.13a47.9 47.9 0 0 0-.79-8.58z" fill="#fff"/></g></svg>