<svg xmlns="http://www.w3.org/2000/svg" viewBox="0 0 16 16"><path d="M14.5 8c-1 0-1 1-1.8 1-.4 0-.7-.3-.7-.8V5c0-.6-.4-1-1-1H7.8c-.5 0-.8-.3-.8-.8 0-.8 1-.8 1-1.8C8 .6 7.1 0 6 0S4 .6 4 1.5c0 1 1 1 1 1.8 0 .4-.3.7-.8.7H1c-.6 0-1 .4-1 1v2.2c0 .5.3.8.8.8.8 0 .8-1 1.8-1C3.4 7 4 7.9 4 9s-.6 2-1.5 2c-1 0-1-1-1.8-1-.4 0-.7.3-.7.8V15c0 .6.4 1 1 1h3.2c.5 0 .8-.3.8-.8 0-.8-1-.8-1-1.8 0-.8.9-1.4 2-1.4s2 .6 2 1.5c0 1-1 1-1 1.8 0 .4.3.7.8.7H11c.6 0 1-.4 1-1v-3.2c0-.4.3-.7.8-.8.8 0 .8 1 1.8 1 .9 0 1.5-.9 1.5-2s-.7-2-1.6-2z" fill="#424c55"/></svg>