<svg version="1.1" id="Layer_1" xmlns="http://www.w3.org/2000/svg" x="0" y="0" viewBox="0 0 16 16" xml:space="preserve"><style>.st0{fill:#424c55}</style><path class="st0" d="M13.6 1H2.4C1.1 1 0 2.1 0 3.4v6.2C0 10.9 1.1 12 2.4 12h5.8l3 3.6c.3.4 1 .5 1.4.1.2-.2.4-.5.4-.8v-3h.6c1.3 0 2.4-1.1 2.4-2.4V3.4C16 2.1 14.9 1 13.6 1zm.4 8.6c0 .2-.2.4-.4.4H12c-.6 0-1 .4-1 1v1.2l-1.5-1.8c-.2-.3-.5-.4-.8-.4H2.4c-.2 0-.4-.2-.4-.4V3.4c0-.2.2-.4.4-.4h11.2c.2 0 .4.2.4.4v6.2z"/><path class="st0" d="M11.5 5h-7c-.3 0-.5.2-.5.5s.2.5.5.5h7c.3 0 .5-.2.5-.5s-.2-.5-.5-.5zm0 2h-7c-.3 0-.5.2-.5.5s.2.5.5.5h7c.3 0 .5-.2.5-.5s-.2-.5-.5-.5z"/></svg>