<svg xmlns="http://www.w3.org/2000/svg" viewBox="0 0 32 32"><path d="M31.4 14.6c0-.3-.1-.5-.1-.5s-.1.1-.3.4c-.1-.7-.2-1.4-.4-2-.2-.8-.6-1.6-.9-2.4-.2-.5-.5-1-.9-1.5-.1-.2-.2-.3-.4-.5-.6-.9-1.2-1.5-2-2.6-.5-.8-.8-1.7-1-2.7-.1.6-.3 1.2-.4 1.8-.8-.8-1.5-1.3-1.9-1.7C21.1 1 21.4 0 21.4 0s-3.8 4.2-2.1 8.6c.6 1.5 1.5 2.8 2.8 3.7 1.6 1.3 3.3 2.3 4.2 4.9-.7-1.4-1.8-2.5-3.1-3.3.4.9.6 2 .6 3 0 3.9-3.2 7.1-7.1 7.1-.5 0-1.1-.1-1.6-.2-.6-.1-1.2-.3-1.8-.6-.8-.5-1.5-1.2-2.1-2h.1c.3.1.6.2.9.2 1.2.3 2.5.1 3.6-.4 1.1-.6 1.8-1.1 2.4-.9.5.2 1-.4.6-.9-.7-.9-1.8-1.3-2.8-1.1-1.1.2-2.2 1-3.6.2-.1 0-.2-.1-.3-.2-.1-.1.3.1.2 0-.3-.2-.6-.3-.9-.6l.2.1c-.4-.3-.7-.6-1-1-.3-.5-.3-1.1-.1-1.6.1-.2.3-.4.6-.6.2.1.3.2.3.2l-.1-.2c.2.1.5.3.7.4l.3.3s.1 0 0-.2-.2-.3-.3-.4c.1.1.3.2.4.3.1-.3.2-.6.2-.9 0-.2 0-.3-.1-.5-.1-.1 0-.1.1 0 0-.1 0-.2-.1-.2l.1-.1.2-.2c.5-.3 1-.5 1.5-.7.4-.2.8-.3.8-.4.1-.1.2-.1.3-.2.3-.3.6-.7.7-1.1v-.3c-.1-.2-.5-.3-2.6-.5-.7-.1-1.3-.7-1.4-1.4 0 .1-.1.1-.1.2 0-.1.1-.1.1-.2.4-1 1.1-1.9 2-2.5h-.2c.2-.1.3-.2.5-.2.1 0-.4-.2-.8-.2-.3 0-.5.1-.8.2.1-.1.4-.2.3-.2-.5.1-1.1.3-1.5.6v-.1c-.4.2-.7.4-1 .7v-.2c-.2.1-.3.3-.5.4-1-.4-2.2-.5-3.4-.2-.2-.3-.4-.5-.6-.8-.1-.1-.2-.2-.3-.4 0-.1-.1-.2-.1-.3 0 0 0 .1-.1.1-.2-.6-.3-1.1-.3-1.7-.3.2-.6.5-.7.9-.1.2-.1.2-.2.3v-.2c0 .1-.1.2-.2.4-.1.1-.1.2-.1.4v-.2c-.4 1-.7 2-.8 3v.5c-.4.5-.7.8-.9 1.2C1.6 11.1 1 12.6.7 14c.3-.6.6-1.1.9-1.6-.7 1.8-1 3.6-1 5.5.1-.6.3-1.1.4-1.6-.1 2.2.3 4.4 1.2 6.5 1.2 2.8 3.3 5.2 6 6.7 1.1.7 2.2 1.3 3.5 1.7.2.1.3.1.5.2-.1 0-.1 0-.2-.1 1.5.4 3 .7 4.5.7 5.4 0 7.2-2.1 7.3-2.3.3-.2.5-.5.6-.9.1 0 .2-.1.3-.1h.1l.1-.1c.8-.4 1.6-.9 2.3-1.4 1-.8 1.8-1.8 2.1-3.1.2-.5.2-1 0-1.4.1-.1.1-.2.2-.3 1.2-1.9 1.8-4 1.9-6.2V16c.1-.5 0-.9 0-1.4z" fill="#fff"/></svg>