<svg id="Layer_1" xmlns="http://www.w3.org/2000/svg" viewBox="0 0 16 16"><style>.st0{fill:#424c55}</style><path class="st0" d="M13 1H3C1.3 1 0 2.3 0 4v8c0 1.7 1.3 3 3 3h10c1.7 0 3-1.3 3-3V4c0-1.7-1.3-3-3-3zM2 12V4c0-.6.4-1 1-1h5v10H3c-.6 0-1-.4-1-1zm12 0c0 .6-.4 1-1 1H9V3h4c.6 0 1 .4 1 1v8z"/><path class="st0" d="M5.9 6.3h-2c-.3 0-.5-.3-.5-.5s.2-.5.5-.5h2c.3 0 .5.2.5.5s-.2.5-.5.5zm0 2h-2c-.3 0-.5-.3-.5-.5s.2-.5.5-.5h2c.3 0 .5.2.5.5s-.2.5-.5.5zm-1 2h-1c-.3 0-.5-.2-.5-.5s.2-.5.5-.5h1c.3 0 .5.2.5.5s-.2.5-.5.5z"/></svg>