<svg xmlns="http://www.w3.org/2000/svg" viewBox="0 0 2326 240"><style>.st0{display:none}.st2{display:inline}.st3{fill:#fff}.st5{fill:#424c55}.st6{fill:#323031}.st7{fill:#00ff36}</style><g id="Layer_1" class="st0"><path fill="#ff860d" d="M141-684h1020v240H141z"/><g class="st2"><path class="st3" d="M351.2-577.3c-.3-1.8-.6-2.9-.6-2.9s-.7.8-1.9 2.4c-.4-4.3-1.2-8.6-2.3-12.8-1.5-5.2-3.5-10.3-5.9-15.2-1.5-3.2-3.3-6.3-5.4-9.3-.7-1.1-1.5-2.2-2.3-3.2-3.6-5.9-7.7-9.5-12.5-16.2-3.1-5.2-5.2-11-6.3-16.9-1.3 3.6-2.3 7.3-3 11.1-4.9-4.9-9.2-8.5-11.7-10.9-12.7-11.9-11.2-18-11.2-18s-23.7 26.5-13.4 54.1c3.5 9.4 9.7 17.5 17.7 23.5 9.9 8.2 20.6 14.7 26.3 31.1-4.5-8.7-11.4-15.9-19.8-20.9 2.5 6 3.8 12.4 3.8 18.9 0 24.8-20.2 44.9-45 44.9-3.4 0-6.7-.4-10-1.1-3.9-.7-7.6-2-11.1-3.8-5.2-3.2-9.8-7.4-13.3-12.3l-.1-.1.8.3c1.9.6 3.8 1.1 5.7 1.5 7.6 1.6 15.6.7 22.6-2.7 7.1-3.9 11.4-6.9 14.9-5.7h.1c3.4 1.1 6.1-2.2 3.7-5.7-4.2-5.5-11.1-8.2-18-7-7.1 1-13.6 6.1-22.9 1.2-.6-.3-1.2-.7-1.7-1-.6-.4 2 .5 1.4.1-2-1-4-2.2-5.9-3.5-.1-.1 1.4.4 1.3.3-2.4-1.6-4.5-3.7-6.1-6.2-1.7-3-1.8-6.7-.4-9.8.9-1.5 2.2-2.8 3.8-3.6 1.2.6 1.9 1 1.9 1s-.5-1-.8-1.5c.1 0 .2 0 .3-.1 1.1.5 3.4 1.6 4.6 2.4.8.5 1.6 1.1 2.1 1.9 0 0 .4-.2.1-1.1-.4-1.1-1.2-2-2.2-2.7h.1c.9.5 1.8 1 2.7 1.7.8-1.8 1.1-3.7 1.1-5.7.1-1.1-.1-2.1-.4-3.2-.3-.6.2-.9.8-.2-.1-.5-.3-1-.5-1.5v-.1s.3-.4.5-.6c.4-.4.9-.8 1.4-1.1 2.9-1.8 6-3.4 9.2-4.7 2.6-1.1 4.8-2 5.2-2.3.7-.4 1.3-.9 1.8-1.4 2.2-1.8 3.6-4.4 4.2-7.2.1-.4.1-.7.1-1.1v-.7c-.4-1.4-2.8-2.5-15.6-3.7-4.5-.7-8.1-4.1-9.1-8.6v.1c-.2.5-.3.9-.5 1.4.2-.5.3-.9.5-1.4v-.1c2.4-6.4 6.8-11.8 12.5-15.6.3-.3-1.3.1-1-.2 1.1-.5 2.2-1 3.3-1.4.6-.2-2.5-1.4-5.1-1.1-1.6.1-3.3.5-4.8 1.1.6-.5 2.5-1.3 2.1-1.3-3.4.7-6.7 1.9-9.7 3.7 0-.3.1-.6.2-.9-2.4 1-4.5 2.6-6.1 4.7 0-.4.1-.7.1-1.1-1.1.8-2.1 1.8-3 2.8h-.1c-7.1-2.7-14.8-3.4-22.2-1.9l-.1-.1h.1c-1.5-1.3-2.9-2.7-3.9-4.4h-.1l-.1-.1c-.5-.7-1-1.5-1.5-2.4-.4-.6-.7-1.4-1.1-2.1 0-.1-.1-.1-.1-.1-.2 0-.3.7-.4.5-1.3-3.4-1.9-7-1.8-10.6l-.1.1c-2.1 1.4-3.7 3.5-4.5 5.9-.4.9-.6 1.3-.9 1.8v-.2c.1-.4.2-1.3.2-1.3 0 .1-.1.1-.1.2-.6.7-1.2 1.5-1.6 2.3-.4.8-.7 1.6-.9 2.4v-.4c0-.3.1-.8 0-.7l-.1.3c-2.7 6.1-4.4 12.5-5 19.1-.2 1.1-.2 2.3-.2 3.4v.1c-2 2.1-3.7 4.5-5.2 6.9-4.9 8.3-8.6 17.3-10.9 26.7 1.6-3.6 3.6-7 5.8-10.2-4.4 11-6.6 22.8-6.6 34.7.7-3.5 1.7-6.9 2.8-10.3-.7 14 2 28 7.9 40.8 7.9 17.7 21 32.5 37.5 42.6 6.7 4.6 14.1 8.1 21.9 10.5 1 .4 2.1.7 3.1 1.1-.3-.1-.6-.3-1-.4 9.2 2.8 18.8 4.2 28.4 4.2 34 0 45.3-13 46.3-14.2 1.7-1.5 3-3.4 4-5.4.7-.3 1.3-.6 2-.9l.4-.2.8-.4c5.1-2.4 9.9-5.4 14.4-9 6.6-4.7 11.4-11.7 13.4-19.6 1.2-2.9 1.3-6.1.2-9 .3-.6.7-1.1 1.1-1.8 7.3-11.7 11.5-25.2 12-39v-1.1c-.3-2.8-.5-5.7-1.1-8.6z"/></g><g class="st2"><path fill="none" d="M385-631.5h758V-469H385z"/><text transform="translate(385.035 -520.94)" class="st3" font-family="ZillaSlab-Bold" font-size="160.726">Accounts</text></g></g><g id="Layer_1_copy" class="st0"><path fill="#131a46" d="M141-684h1020v240H141z"/><g class="st2"><path class="st3" d="M351.2-577.3c-.3-1.8-.6-2.9-.6-2.9s-.7.8-1.9 2.4c-.4-4.3-1.2-8.6-2.3-12.8-1.5-5.2-3.5-10.3-5.9-15.2-1.5-3.2-3.3-6.3-5.4-9.3-.7-1.1-1.5-2.2-2.3-3.2-3.6-5.9-7.7-9.5-12.5-16.2-3.1-5.2-5.2-11-6.3-16.9-1.3 3.6-2.3 7.3-3 11.1-4.9-4.9-9.2-8.5-11.7-10.9-12.7-11.9-11.2-18-11.2-18s-23.7 26.5-13.4 54.1c3.5 9.4 9.7 17.5 17.7 23.5 9.9 8.2 20.6 14.7 26.3 31.1-4.5-8.7-11.4-15.9-19.8-20.9 2.5 6 3.8 12.4 3.8 18.9 0 24.8-20.2 44.9-45 44.9-3.4 0-6.7-.4-10-1.1-3.9-.7-7.6-2-11.1-3.8-5.2-3.2-9.8-7.4-13.3-12.3l-.1-.1.8.3c1.9.6 3.8 1.1 5.7 1.5 7.6 1.6 15.6.7 22.6-2.7 7.1-3.9 11.4-6.9 14.9-5.7h.1c3.4 1.1 6.1-2.2 3.7-5.7-4.2-5.5-11.1-8.2-18-7-7.1 1-13.6 6.1-22.9 1.2-.6-.3-1.2-.7-1.7-1-.6-.4 2 .5 1.4.1-2-1-4-2.2-5.9-3.5-.1-.1 1.4.4 1.3.3-2.4-1.6-4.5-3.7-6.1-6.2-1.7-3-1.8-6.7-.4-9.8.9-1.5 2.2-2.8 3.8-3.6 1.2.6 1.9 1 1.9 1s-.5-1-.8-1.5c.1 0 .2 0 .3-.1 1.1.5 3.4 1.6 4.6 2.4.8.5 1.6 1.1 2.1 1.9 0 0 .4-.2.1-1.1-.4-1.1-1.2-2-2.2-2.7h.1c.9.5 1.8 1 2.7 1.7.8-1.8 1.1-3.7 1.1-5.7.1-1.1-.1-2.1-.4-3.2-.3-.6.2-.9.8-.2-.1-.5-.3-1-.5-1.5v-.1s.3-.4.5-.6c.4-.4.9-.8 1.4-1.1 2.9-1.8 6-3.4 9.2-4.7 2.6-1.1 4.8-2 5.2-2.3.7-.4 1.3-.9 1.8-1.4 2.2-1.8 3.6-4.4 4.2-7.2.1-.4.1-.7.1-1.1v-.7c-.4-1.4-2.8-2.5-15.6-3.7-4.5-.7-8.1-4.1-9.1-8.6v.1c-.2.5-.3.9-.5 1.4.2-.5.3-.9.5-1.4v-.1c2.4-6.4 6.8-11.8 12.5-15.6.3-.3-1.3.1-1-.2 1.1-.5 2.2-1 3.3-1.4.6-.2-2.5-1.4-5.1-1.1-1.6.1-3.3.5-4.8 1.1.6-.5 2.5-1.3 2.1-1.3-3.4.7-6.7 1.9-9.7 3.7 0-.3.1-.6.2-.9-2.4 1-4.5 2.6-6.1 4.7 0-.4.1-.7.1-1.1-1.1.8-2.1 1.8-3 2.8h-.1c-7.1-2.7-14.8-3.4-22.2-1.9l-.1-.1h.1c-1.5-1.3-2.9-2.7-3.9-4.4h-.1l-.1-.1c-.5-.7-1-1.5-1.5-2.4-.4-.6-.7-1.4-1.1-2.1 0-.1-.1-.1-.1-.1-.2 0-.3.7-.4.5-1.3-3.4-1.9-7-1.8-10.6l-.1.1c-2.1 1.4-3.7 3.5-4.5 5.9-.4.9-.6 1.3-.9 1.8v-.2c.1-.4.2-1.3.2-1.3 0 .1-.1.1-.1.2-.6.7-1.2 1.5-1.6 2.3-.4.8-.7 1.6-.9 2.4v-.4c0-.3.1-.8 0-.7l-.1.3c-2.7 6.1-4.4 12.5-5 19.1-.2 1.1-.2 2.3-.2 3.4v.1c-2 2.1-3.7 4.5-5.2 6.9-4.9 8.3-8.6 17.3-10.9 26.7 1.6-3.6 3.6-7 5.8-10.2-4.4 11-6.6 22.8-6.6 34.7.7-3.5 1.7-6.9 2.8-10.3-.7 14 2 28 7.9 40.8 7.9 17.7 21 32.5 37.5 42.6 6.7 4.6 14.1 8.1 21.9 10.5 1 .4 2.1.7 3.1 1.1-.3-.1-.6-.3-1-.4 9.2 2.8 18.8 4.2 28.4 4.2 34 0 45.3-13 46.3-14.2 1.7-1.5 3-3.4 4-5.4.7-.3 1.3-.6 2-.9l.4-.2.8-.4c5.1-2.4 9.9-5.4 14.4-9 6.6-4.7 11.4-11.7 13.4-19.6 1.2-2.9 1.3-6.1.2-9 .3-.6.7-1.1 1.1-1.8 7.3-11.7 11.5-25.2 12-39v-1.1c-.3-2.8-.5-5.7-1.1-8.6z"/></g><g class="st2"><path fill="none" d="M385-631.5h758V-469H385z"/><text transform="translate(385.035 -520.94)" class="st3" font-family="ZillaSlab-Bold" font-size="160.726">Test Pilot</text></g></g><g id="Layer_3"><path class="st5" d="M27-338h1933v231H27z"/><path class="st6" d="M350.7-577c-.3-1.8-.5-2.9-.5-2.9s-.7.8-1.9 2.4c-.4-4.3-1.1-8.5-2.3-12.7-1.5-5.2-3.4-10.2-5.8-15-1.5-3.2-3.3-6.3-5.3-9.2-.7-1.1-1.5-2.2-2.2-3.2-3.6-5.8-7.6-9.4-12.4-16.1-3.1-5.2-5.2-10.8-6.2-16.7-1.3 3.6-2.3 7.2-3 11-4.8-4.9-9.1-8.4-11.6-10.7-12.6-11.7-11.1-17.8-11.1-17.8s-23.4 26.2-13.3 53.4c3.5 9.3 9.6 17.3 17.5 23.3 9.8 8.1 20.4 14.5 26 30.8-4.5-8.6-11.3-15.7-19.6-20.7 2.5 5.9 3.8 12.3 3.7 18.7 0 24.5-19.9 44.4-44.5 44.4-3.3 0-6.6-.4-9.9-1.1-3.8-.7-7.5-2-11-3.7-5.2-3.1-9.7-7.3-13.2-12.2l-.1-.1.8.3c1.8.6 3.7 1.1 5.6 1.5 7.5 1.6 15.4.7 22.3-2.6 7-3.9 11.3-6.8 14.7-5.6h.1c3.4 1.1 6-2.2 3.6-5.6-4.2-5.4-11-8.1-17.8-6.9-7 1-13.5 6-22.7 1.2-.6-.3-1.2-.6-1.7-1-.6-.4 2 .5 1.4.1-2-1-3.9-2.2-5.8-3.5-.1-.1 1.4.4 1.2.3-2.4-1.6-4.4-3.7-6-6.1-1.7-3-1.8-6.6-.4-9.7.9-1.5 2.2-2.8 3.7-3.5 1.2.6 1.9 1 1.9 1s-.5-1-.8-1.5c.1 0 .2 0 .3-.1 1 .4 3.3 1.6 4.6 2.3.8.5 1.5 1.1 2.1 1.9 0 0 .4-.2.1-1.1-.4-1.1-1.2-2-2.2-2.6h.1c.9.5 1.8 1 2.7 1.7.8-1.8 1.1-3.7 1.1-5.6.1-1.1-.1-2.1-.4-3.1-.3-.6.2-.9.8-.2-.1-.5-.3-1-.5-1.5 0 0 .3-.4.5-.6.4-.4.9-.8 1.3-1.1 2.9-1.8 6-3.4 9.1-4.7 2.6-1.1 4.7-2 5.2-2.2.6-.4 1.3-.9 1.8-1.4 2.1-1.8 3.6-4.3 4.1-7.1.1-.4.1-.7.1-1.1v-.7c-.4-1.4-2.8-2.5-15.4-3.6-4.5-.7-8-4.1-9-8.5v.1c-.2.5-.3.9-.5 1.4.2-.5.3-.9.5-1.4v-.1c2.4-6.3 6.7-11.7 12.4-15.4.3-.3-1.3.1-1-.2 1.1-.5 2.2-1 3.3-1.4.6-.2-2.4-1.4-5.1-1.1-1.6.1-3.2.5-4.7 1.1.6-.5 2.5-1.2 2.1-1.2-3.4.7-6.6 1.9-9.6 3.6 0-.3.1-.6.2-.9-2.4 1-4.4 2.6-6 4.6 0-.4.1-.7.1-1.1-1.1.8-2.1 1.7-2.9 2.8h-.1c-7-2.7-14.6-3.4-21.9-1.9l-.1-.1h.1c-1.5-1.2-2.8-2.7-3.9-4.4h-.1l-.1-.1c-.5-.7-1-1.5-1.5-2.4-.4-.6-.7-1.4-1.1-2.1l-.1-.1c-.1 0-.3.7-.4.5-1.3-3.4-1.9-6.9-1.8-10.5h-.1c-2.1 1.4-3.6 3.5-4.5 5.8-.4.9-.6 1.3-.9 1.8v-.2c.1-.4.2-1.3.2-1.2 0 .1-.1.1-.1.2-.6.7-1.1 1.5-1.6 2.3-.4.8-.7 1.6-.9 2.4v-.4c0-.3.1-.8 0-.7l-.1.3c-2.7 6-4.4 12.4-5 18.9-.2 1.1-.2 2.2-.2 3.4v.1c-1.9 2.1-3.6 4.4-5.1 6.9-4.9 8.2-8.5 17.1-10.8 26.4 1.6-3.5 3.5-6.9 5.8-10.1-4.3 10.9-6.5 22.6-6.5 34.3.7-3.4 1.7-6.8 2.8-10.2-.7 13.9 2 27.7 7.8 40.3 7.8 17.5 20.7 32.2 37.1 42.1 6.7 4.5 13.9 8 21.6 10.4 1 .4 2 .7 3.1 1.1-.3-.1-.6-.3-1-.4 9.1 2.7 18.6 4.1 28.1 4.1 33.6 0 44.7-12.8 45.8-14.1 1.7-1.5 3-3.3 4-5.3.6-.3 1.3-.6 2-.9l.4-.2.8-.4c5.1-2.4 9.8-5.4 14.2-8.9 6.5-4.7 11.2-11.5 13.2-19.3 1.2-2.8 1.3-6 .2-8.9.3-.5.7-1.1 1.1-1.7 7.2-11.6 11.3-24.9 11.9-38.5v-1.1c-.1-3.3-.3-6.2-.9-9z"/><path fill="none" d="M405.6-660.1h688.6v198.4H405.6z"/><text transform="translate(405.588 -512.727)"><tspan x="0" y="0" class="st6" font-family="ZillaSlabHighlight-Bold" font-size="160.726">Applica</tspan><tspan x="539.1" y="0" class="st6" font-family="ZillaSlabHighlight-Bold" font-size="160.726">-</tspan></text><path fill="none" d="M338.6-276.1H2015V-107H338.6z"/><text transform="translate(338.588 -165.535)" class="st3" font-family="ZillaSlab-Bold" font-size="160.726">Application Services</text><path class="st3" d="M296.7-231.8c-.2-1.5-.4-2.3-.4-2.3s-.6.7-1.5 1.9c-.3-3.5-.9-6.9-1.9-10.3-1.2-4.2-2.8-8.3-4.7-12.2-1.2-2.6-2.7-5.1-4.3-7.4-.6-.9-1.2-1.7-1.8-2.6-2.9-4.7-6.2-7.6-10-13.1-2.5-4.2-4.2-8.8-5-13.6-1.1 2.9-1.9 5.9-2.4 8.9-3.9-4-7.4-6.8-9.4-8.7-10.2-9.5-9-14.5-9-14.5s-19.1 21.3-10.8 43.4c2.8 7.5 7.8 14.1 14.2 18.9 8 6.6 16.6 11.8 21.1 25-3.6-7-9.2-12.8-15.9-16.8 2 4.8 3.1 10 3 15.2 0 19.9-16.2 36.1-36.1 36.1-2.7 0-5.4-.3-8-.9-3.1-.6-6.1-1.6-8.9-3-4.2-2.5-7.9-5.9-10.7-9.9l-.1-.1.6.2c1.5.5 3 .9 4.6 1.2 6.1 1.3 12.5.5 18.2-2.1 5.7-3.2 9.2-5.5 12-4.6h.1c2.7.9 4.9-1.8 2.9-4.6-3.4-4.4-8.9-6.6-14.4-5.6-5.7.8-10.9 4.9-18.4 1-.5-.3-1-.5-1.4-.8-.5-.3 1.6.4 1.1.1-1.6-.8-3.2-1.8-4.7-2.8-.1-.1 1.1.4 1 .3-1.9-1.3-3.6-3-4.9-5-1.3-2.4-1.5-5.3-.3-7.9.7-1.2 1.8-2.2 3-2.9l1.6.8s-.4-.8-.7-1.2c.1 0 .2 0 .2-.1.8.4 2.7 1.3 3.7 1.9.7.4 1.3.9 1.7 1.5 0 0 .3-.2.1-.9-.3-.9-1-1.6-1.8-2.1h.1c.8.4 1.5.8 2.2 1.3.6-1.4.9-3 .9-4.6.1-.9-.1-1.7-.3-2.5-.3-.5.2-.7.6-.2-.1-.4-.2-.8-.4-1.2 0 0 .3-.3.4-.5.3-.3.7-.6 1.1-.9 2.4-1.5 4.8-2.7 7.4-3.8 2.1-.9 3.8-1.6 4.2-1.8.5-.3 1-.7 1.5-1.1 1.7-1.5 2.9-3.5 3.3-5.8 0-.3.1-.6.1-.9v-.7c-.3-1.1-2.3-2-12.5-3-3.6-.6-6.5-3.3-7.3-6.9-.1.4-.3.8-.4 1.1.1-.4.3-.8.4-1.1v-.1c2-5.1 5.5-9.5 10.1-12.5.3-.2-1.1.1-.8-.2.9-.4 1.8-.8 2.7-1.1.5-.2-2-1.1-4.1-.9-1.3.1-2.6.4-3.8.9.5-.4 2-1 1.7-1-2.8.5-5.4 1.5-7.8 3 0-.2 0-.5.2-.7-1.9.8-3.6 2.1-4.9 3.8 0-.3.1-.6.1-.9-.9.7-1.7 1.4-2.4 2.2-5.7-2.2-11.9-2.7-17.8-1.5h-.1.1c-1.2-1-2.3-2.2-3.2-3.5h-.1l-.1-.1c-.4-.6-.8-1.2-1.2-2-.3-.5-.6-1.1-.9-1.7 0 0 0-.1-.1-.1s-.2.6-.3.4c-1-2.7-1.5-5.6-1.4-8.5h-.1c-1.7 1.2-2.9 2.8-3.6 4.7-.3.7-.5 1.1-.7 1.5v-.2c0-.3.2-1.1.2-1 0 .1-.1.1-.1.1-.5.6-.9 1.2-1.3 1.9-.3.6-.6 1.3-.8 1.9v-.9l-.1.2c-2.2 4.9-3.6 10.1-4.1 15.4-.1.9-.2 1.8-.2 2.7v.1c-1.6 1.7-3 3.6-4.1 5.6-4 6.7-6.9 13.9-8.8 21.4 1.3-2.9 2.9-5.6 4.7-8.2-3.5 8.9-5.3 18.3-5.3 27.9.6-2.8 1.4-5.6 2.3-8.3-.6 11.3 1.6 22.5 6.3 32.8 6.3 14.2 16.8 26.1 30.2 34.2 5.4 3.7 11.3 6.5 17.6 8.4.8.3 1.7.6 2.5.9-.3-.1-.5-.2-.8-.3 7.4 2.2 15.1 3.3 22.8 3.4 27.3 0 36.4-10.4 37.2-11.4 1.4-1.2 2.4-2.7 3.2-4.3.5-.2 1.1-.4 1.6-.7l.3-.2.6-.3c4.1-1.9 8-4.4 11.5-7.2 5.3-3.8 9.1-9.4 10.8-15.7 1-2.3 1-4.9.1-7.2.3-.4.6-.9.9-1.4 5.9-9.4 9.2-20.2 9.7-31.3v-.9c-.7-2.2-.9-4.6-1.3-6.9z"/></g><g id="Layer_4"><path class="st5" d="M0 0h2326v240H0z"/><path class="st3" d="M434.9 192.9h-56.8v-25h11.4l-5.3-14.5h-48.5l-5.9 14.5h13.4v25H287v-25h12.9l40.8-92.6H321v-25h49l51.4 117.6H435v25zm-58.6-60.6l-14.9-40.2h-1.3l-16 40.2h32.2zm177.6 8.8c0 14.6-3.8 27.3-11.5 38s-19 16-33.9 16c-13.9 0-24-4.9-30.3-14.7v37.3h17.6v21.9h-59v-21.9H450V115.2h-14.3V93.9h42.6v18.9c2.6-5.7 6.6-10.6 11.9-14.7 5.3-4.1 12.4-6.1 21.5-6.1 12.6 0 22.8 4.3 30.6 12.9 7.7 8.6 11.6 20.7 11.6 36.2zm-29.4 2.8c0-9.7-2.2-17-6.5-22.1-4.3-5-9.8-7.6-16.6-7.6-7.3 0-12.9 2.7-16.8 8.1-3.9 5.4-6 12.3-6.3 20.6l-.2 3.5c0 8 2.1 14.4 6.4 19.1 4.2 4.7 9.9 7 16.9 7 6.7 0 12.3-2.3 16.6-7 4.3-4.5 6.5-11.8 6.5-21.6zm154.7-2.8c0 14.6-3.8 27.3-11.5 38s-19 16-33.9 16c-13.9 0-24-4.9-30.3-14.7v37.3h17.6v21.9h-59v-21.9h13.2V115.2H561V93.9h42.6v18.9c2.6-5.7 6.6-10.6 11.9-14.7C620.8 94 627.9 92 637 92c12.6 0 22.8 4.3 30.6 12.9 7.7 8.6 11.6 20.7 11.6 36.2zm-29.4 2.8c0-9.7-2.2-17-6.5-22.1-4.3-5-9.8-7.6-16.6-7.6-7.3 0-12.9 2.7-16.8 8.1-3.9 5.4-6 12.3-6.3 20.6l-.2 3.5c0 8 2.1 14.4 6.4 19.1 4.2 4.7 9.9 7 16.9 7 6.7 0 12.3-2.3 16.6-7 4.3-4.5 6.5-11.8 6.5-21.6zm92.8 49H688v-21.3h13.2V63.4h-14.3V41.9h42.6v129.7h13.2v21.3zm65.7 0h-54.7v-21.3h13.2v-56.2h-14.3V93.9h42.6v77.7h13.2v21.3zM765.7 76.3V46.9H794v29.4h-28.3zM912.1 156c-1 9.1-4.9 17.9-11.7 26.3-6.8 8.5-18.2 12.7-34.1 12.7-14.3 0-26.2-4.2-35.4-12.5-9.3-8.3-13.9-20.9-13.9-37.5 0-17.6 5-30.8 15.1-39.7 10.1-8.9 22.3-13.4 36.7-13.4 5.4 0 11.2.7 17.4 2.1 6.2 1.4 12.3 3.7 18.3 6.9l4.4 30.1-22.6 2.4-3.3-16.2c-5.7-1.9-10.7-2.9-14.9-2.9-6 0-11.1 2.3-15.4 6.9-4.2 4.6-6.4 12.1-6.4 22.5 0 19.3 7.5 29 22.6 29 11.1 0 17.6-7 19.5-21.1l23.7 4.4zm18.4-55.1c8.6-3.5 15.8-5.9 21.6-7.1 5.8-1.2 12.7-1.9 20.7-1.9 10.7 0 19.9 2.8 27.7 8.3 7.8 5.6 11.6 14 11.6 25.2v43c0 5.1 2.3 7.7 6.8 7.7 1.3 0 2.7-.2 4.2-.7l.2 14.9c-5.7 3.1-11.6 4.6-17.8 4.6-13 0-20.3-6.5-21.7-19.5v-.2c-2.8 5-6.8 9.5-12 13.6s-11.8 6.1-19.9 6.1c-7.2 0-14-2.1-20.6-6.4-6.6-4.2-9.9-11.6-9.9-21.9 0-12.1 4.9-20.2 14.6-24.1 9.7-4 20.2-5.9 31.5-5.9 6.3 0 11.7.3 16.2.9v-3.3c0-5.1-.7-10.1-2.1-14.9-1.4-4.8-6.1-7.2-14.2-7.2-2.9 0-5.6.2-8 .5-2.4.4-4.8 1.1-7.1 2.3l-3.7 14-22.6-2.4 4.5-25.6zm53.4 51.6v-1.3c-2.3-.3-4.7-.6-7.1-.9-2.4-.3-4.8-.4-7.1-.4-5 0-9.4.9-13.2 2.7-3.8 1.8-5.7 5.5-5.7 10.9 0 3.2.9 5.9 2.6 8.1 1.8 2.2 4.8 3.3 9 3.3 5 0 9.6-1.8 13.9-5.4 4.3-3.6 6.8-9.2 7.6-17zm131.9 9.7c-1.5 11.4-5.4 19.8-11.9 25-6.4 5.3-14.8 7.9-25 7.9-11 0-19.9-2.7-26.7-8.2s-10.2-13.4-10.2-23.6v-49.2h-14V93.9h14V63.8h28.3v30.1h35.6v20.2h-35.6v44.3c0 8.6 4 13 11.9 13 1.8 0 4.1-.8 7.1-2.3 3-1.5 4.9-6 5.8-13.3l20.7 6.4zm59.9 30.7H1121v-21.3h13.2v-56.2h-14.3V93.9h42.6v77.7h13.2v21.3zm-42.6-116.6V46.9h28.3v29.4h-28.3zm156.9 67.2c0 15.7-5.1 28.2-15.4 37.5-10.2 9.4-23.3 14-39.1 14-15.2 0-27.6-4.4-37.2-13.3-9.6-8.9-14.4-21.3-14.4-37.2 0-14.5 4.4-26.9 13.2-37.3 8.8-10.4 22.1-15.6 39.9-15.6 17.8 0 31.1 5.2 39.8 15.5 8.9 10.4 13.2 22.5 13.2 36.4zm-29.2-.9c0-10.1-2.3-17.5-7-22.2-4.7-4.7-10.4-7-17.1-7-7.3 0-13.1 2.6-17.2 7.8-4.2 5.2-6.3 12.5-6.3 21.8 0 8.5 1.9 15.7 5.8 21.5 3.9 5.9 9.7 8.8 17.4 8.8 7.3 0 13.2-2.7 17.7-8.2 4.5-5.5 6.7-13 6.7-22.5zm161.1 50.3h-54.7v-21.3h13.2v-34.5c0-8.5-1.4-14.6-4.3-18.2-2.9-3.7-7.1-5.5-12.6-5.5-6.7 0-11.9 2.1-15.6 6.3-3.7 4.2-5.6 9.6-5.7 16.4v35.6h13.2V193h-54.7v-21.3h13.2v-56.2h-14.3V93.9h42.6V109c6.6-11.4 17.2-17.1 31.8-17.1 9.4 0 17.5 2.8 24.4 8.3 6.9 5.6 10.3 14.2 10.3 25.9v45.4h13.2v21.4zm159.2-43.2c0 14.8-5 26-14.9 33.8-10 7.8-23.6 11.6-41 11.6-9.7 0-19.3-1.2-28.9-3.7-9.6-2.5-17.2-6.2-22.7-11.2l4.4-35.3 23.5 2.2-.2 17.3c5 2.6 9.2 4.2 12.7 4.7s6.5.8 9 .8c7.8 0 14.1-1 19.1-3 5-2 7.5-6.5 7.5-13.7 0-7.9-2.9-13.2-8.8-15.9-5.9-2.7-12.7-4.8-20.6-6.3-6.9-1.2-13.8-2.9-20.7-5.2-7-2.3-12.8-6-17.4-11.2-4.7-5.2-7-12.9-7-23.2 0-15.9 5.4-27.2 16.2-33.7 10.8-6.5 22.7-9.8 35.6-9.8 9.4 0 18.3 1.4 26.8 4.3s15 6.7 19.5 11.5l1.3 30.9-23.5 2.2-2-16.7c-3.7-2.5-7.4-4.2-11.1-5-3.7-.9-7.4-1.3-10.9-1.3-5.9 0-10.7 1-14.6 3.1-3.9 2.1-5.8 5.6-5.8 10.8 0 6 2.5 10.2 7.5 12.5 5 2.3 10.7 4.2 17.1 5.7 5.9 1.2 12.7 2.8 20.5 4.9 7.8 2.1 14.7 6.1 20.6 11.9 5.8 5.8 8.8 14.8 8.8 27zm108.4 12c-.7 8.8-5 16.5-12.9 23.3-7.9 6.7-19 10.1-33.1 10.1-14.8 0-27-4.2-36.5-12.5-9.6-8.3-14.4-20.8-14.4-37.3 0-15.2 4.4-27.9 13.1-38.1 8.7-10.2 20.9-15.3 36.5-15.3 13.8 0 24.9 4 33.5 11.9s12.9 18.3 13.1 31.2c0 4.8-.5 9.6-1.5 14.3h-65c1.6 15.7 9.4 23.5 23.3 23.5 7.6 0 12.8-1.8 15.5-5.5 2.7-3.7 4.4-6.9 4.9-9.9l23.5 4.3zm-30.1-28.9c.6-5-.5-9.7-3.2-14-2.7-4.4-7.4-6.6-14.2-6.6-5.9 0-10.4 1.9-13.6 5.7-3.2 3.8-5.3 8.8-6.1 14.9h37.1zm103.4-40.2c2.8 0 5.9.4 9.3 1.2 3.4.8 6.8 2.2 10.2 4.3l4.4 34.7-21.5 2.4-3.7-16.9c-2.9-1.8-5.5-2.6-7.7-2.6-3.2 0-6 1.2-8.4 3.7-2.4 2.5-3.6 6.1-3.6 11v41.3h17.6V193h-59v-21.3h13.2v-56.2h-14.3V93.9h40.4v18.9c1.6-5.7 4.2-10.5 7.8-14.4 3.4-3.9 8.6-5.8 15.3-5.8zm142 22.6h-10.1l-35.3 77.7H1839l-37.3-77.7h-10.5V93.9h50.5v21.3h-9.4l19.3 41.5h1.3l14.7-41.5h-7.9V93.9h45.2v21.3zm63.2 77.7h-54.7v-21.3h13.2v-56.2h-14.3V93.9h42.6v77.7h13.2v21.3zm-42.6-116.6V46.9h28.3v29.4h-28.3zm146.4 79.7c-1 9.1-4.9 17.9-11.7 26.3-6.8 8.5-18.2 12.7-34.1 12.7-14.3 0-26.2-4.2-35.4-12.5-9.3-8.3-13.9-20.9-13.9-37.5 0-17.6 5-30.8 15.1-39.7 10.1-8.9 22.3-13.4 36.7-13.4 5.4 0 11.2.7 17.4 2.1 6.2 1.4 12.3 3.7 18.3 6.9l4.4 30.1-22.6 2.4-3.3-16.2c-5.7-1.9-10.7-2.9-14.9-2.9-6 0-11.1 2.3-15.4 6.9-4.2 4.6-6.4 12.1-6.4 22.5 0 19.3 7.5 29 22.6 29 11.1 0 17.6-7 19.5-21.1l23.7 4.4zm105.1 5.7c-.7 8.8-5 16.5-12.9 23.3-7.9 6.7-19 10.1-33.1 10.1-14.8 0-27-4.2-36.5-12.5-9.6-8.3-14.4-20.8-14.4-37.3 0-15.2 4.4-27.9 13.1-38.1 8.7-10.2 20.9-15.3 36.5-15.3 13.8 0 24.9 4 33.5 11.9s12.9 18.3 13.1 31.2c0 4.8-.5 9.6-1.5 14.3h-65c1.6 15.7 9.4 23.5 23.3 23.5 7.6 0 12.8-1.8 15.5-5.5 2.7-3.7 4.4-6.9 4.9-9.9l23.5 4.3zm-30-28.9c.6-5-.5-9.7-3.2-14-2.7-4.4-7.4-6.6-14.2-6.6-5.9 0-10.4 1.9-13.6 5.7-3.2 3.8-5.3 8.8-6.1 14.9h37.1zm129.9 29.8c0 11-4.4 19.1-13.1 24.5-8.7 5.3-20 8-33.9 8-7.2 0-14.4-.8-21.6-2.3-7.2-1.5-14.2-4-20.7-7.4l4-27.7 21.9 2.4v12.3c2.6.9 5.4 1.4 8.3 1.6 2.9.2 5.1.3 6.6.3 5.4 0 10.1-.9 14-2.6 4-1.8 5.9-4.4 5.9-7.9 0-4.2-3-7-9-8.3-6-1.3-12.9-2.6-20.9-4-7.9-1.3-14.9-4-20.9-8.1-6-4.1-9-11-9-20.9 0-12.1 4.7-20.3 14.2-24.5 9.4-4.2 19.2-6.3 29.3-6.3 13.2 0 25.5 3 37.1 9l2.4 25.2-21.9 2.4-1.8-13.8c-4.8-1.6-10-2.4-15.6-2.4-3.7 0-6.8.8-9.3 2.3-2.6 1.5-3.8 3.9-3.8 7.1 0 4.2 2.9 7.1 8.7 8.4 5.8 1.4 12.5 2.7 20.2 4.1 7.7 1.3 14.4 4 20.2 8 5.8 4.3 8.7 11.1 8.7 20.6zM238.6 108.7c-.3-1.8-.5-2.8-.5-2.8s-.7.8-1.9 2.3c-.4-4.3-1.1-8.5-2.3-12.6-1.5-5.1-3.4-10.2-5.8-14.9-1.5-3.2-3.3-6.2-5.3-9.1-.7-1.1-1.5-2.1-2.2-3.2-3.5-5.8-7.6-9.3-12.3-16-3.1-5.1-5.1-10.8-6.1-16.6-1.3 3.5-2.3 7.2-2.9 10.9-4.8-4.9-9-8.3-11.5-10.7-12.5-11.6-11-17.7-11-17.7s-23.3 26-13.2 53.1c3.5 9.2 9.5 17.2 17.3 23.1 9.8 8.1 20.3 14.4 25.8 30.6-4.5-8.5-11.2-15.6-19.5-20.6 2.5 5.9 3.8 12.2 3.7 18.6 0 24.4-19.8 44.1-44.2 44.1-3.3 0-6.6-.4-9.8-1.1-3.8-.7-7.5-2-10.9-3.7-5.1-3.1-9.6-7.2-13.1-12.1l-.1-.1.8.3c1.8.6 3.7 1.1 5.6 1.5 7.5 1.6 15.3.7 22.2-2.6 7-3.9 11.2-6.7 14.6-5.6h.1c3.3 1.1 6-2.2 3.6-5.6-4.1-5.4-10.9-8.1-17.6-6.9-7 1-13.4 6-22.5 1.2-.6-.3-1.2-.6-1.7-1-.6-.4 2 .5 1.4.1-2-1-3.9-2.1-5.7-3.4-.1-.1 1.4.4 1.2.3-2.4-1.6-4.4-3.7-6-6.1-1.6-3-1.8-6.5-.4-9.6.9-1.5 2.1-2.7 3.7-3.5 1.2.6 1.9 1 1.9 1s-.5-1-.8-1.5c.1 0 .2 0 .3-.1 1 .4 3.3 1.6 4.5 2.3.8.5 1.5 1.1 2.1 1.9 0 0 .4-.2.1-1.1-.4-1.1-1.2-2-2.1-2.6h.1c.9.5 1.8 1 2.6 1.6.8-1.8 1.1-3.7 1.1-5.6.1-1.1-.1-2.1-.4-3.1-.3-.6.2-.9.8-.2-.1-.5-.3-1-.5-1.5 0 0 .3-.4.5-.6.4-.4.9-.8 1.3-1.1 2.9-1.8 5.9-3.3 9.1-4.6 2.6-1.1 4.7-2 5.1-2.2.6-.4 1.2-.9 1.8-1.4 2.1-1.8 3.6-4.3 4.1-7.1.1-.4.1-.7.1-1.1v-.7c-.4-1.4-2.8-2.4-15.3-3.6-4.4-.7-8-4-9-8.4v.1c-.2.5-.3.9-.5 1.4.2-.5.3-.9.5-1.4v-.1c2.4-6.3 6.7-11.6 12.3-15.3.3-.3-1.3.1-1-.2 1.1-.5 2.2-1 3.3-1.4.6-.2-2.4-1.4-5-1.1-1.6.1-3.2.5-4.7 1.1.6-.5 2.5-1.2 2-1.2-3.4.7-6.6 1.9-9.6 3.6 0-.3.1-.6.2-.9-2.4 1-4.4 2.6-6 4.6 0-.4.1-.7.1-1.1-1.1.8-2.1 1.7-2.9 2.8h-.1c-6.9-2.7-14.5-3.3-21.8-1.9l-.3.1h.1c-1.5-1.2-2.8-2.7-3.9-4.3h-.1l-.1-.2c-.5-.7-1-1.5-1.5-2.4-.4-.6-.7-1.3-1.1-2.1l-.1-.1c-.1 0-.3.7-.4.5-1.3-3.3-1.9-6.9-1.8-10.5H77c-2.1 1.4-3.6 3.4-4.4 5.8-.4.8-.6 1.3-.9 1.8V47c.1-.4.2-1.3.2-1.2 0 .1-.1.1-.1.2-.6.7-1.1 1.5-1.6 2.3-.4.8-.7 1.6-.9 2.4v-.4c0-.3.1-.8 0-.7l-.1.3c-2.7 5.9-4.4 12.3-5 18.8-.2 1.1-.2 2.2-.2 3.3v.1c-1.9 2.1-3.6 4.4-5.1 6.8-4.8 8.2-8.4 17-10.7 26.2 1.6-3.5 3.5-6.9 5.7-10-4.3 10.9-6.5 22.4-6.5 34.1.7-3.4 1.7-6.8 2.8-10.1-.7 13.8 2 27.5 7.7 40 7.7 17.4 20.6 32 36.9 41.8 6.6 4.5 13.9 7.9 21.5 10.3 1 .4 2 .7 3.1 1.1-.3-.1-.6-.3-.9-.4 9 2.7 18.4 4.1 27.9 4.1 33.4 0 44.5-12.7 45.5-14 1.7-1.5 3-3.3 3.9-5.3.6-.3 1.3-.5 2-.8l.4-.2.7-.4c5-2.4 9.8-5.3 14.1-8.8 6.5-4.7 11.2-11.5 13.2-19.2 1.2-2.8 1.2-6 .2-8.8.3-.5.7-1.1 1.1-1.7 7.2-11.5 11.2-24.7 11.8-38.3v-1.1c0-3-.2-5.9-.7-8.7z"/></g><g id="Layer_5" class="st0"><g class="st2"><path class="st7" d="M1124 193h47v47h-47zm-2-193h47v47h-47z"/></g><g class="st2"><path class="st7" d="M2 193h47v47H2zM0 0h47v47H0z"/></g><g class="st2"><path class="st7" d="M2279 193h47v47h-47zm-2-193h47v47h-47z"/></g><g class="st2"><path class="st7" d="M240 193h47v47h-47zM238 0h47v47h-47z"/></g></g></svg>